<svg xmlns="http://www.w3.org/2000/svg" viewBox="0 0 27.489 27.489">
  <defs>
    <style>
      .cls-1 {
        fill: #4daf50;
      }
    </style>
  </defs>
  <g id="Group_720" data-name="Group 720" transform="translate(0 0)">
    <g id="Group_719" data-name="Group 719" transform="translate(0 0)">
      <path id="Path_896" data-name="Path 896" class="cls-1" d="M3.23,18.976a11.031,11.031,0,0,0,13.424,1.716.478.478,0,0,1,.606.1l5.652,5.652c1.11,1.11,2.725,1.413,3.735.4l.2-.2c1.009-1.009.707-2.624-.4-3.735L20.793,17.26c-.2-.2-.1-.606-.1-.606A10.893,10.893,0,0,0,18.976,3.23,11.134,11.134,0,0,0,3.23,18.976Zm13.727-2.019A8.208,8.208,0,0,1,5.35,5.35,8.208,8.208,0,0,1,16.957,16.957Zm0,0" transform="translate(0.025 0.025)"/>
    </g>
    <path id="Path_897" data-name="Path 897" class="cls-1" d="M16.185,10.456a1.1,1.1,0,0,1-1.009-.707A5,5,0,0,0,8.615,7.125,1.3,1.3,0,0,1,7.1,6.519a1.249,1.249,0,0,1,.606-1.514,7.351,7.351,0,0,1,9.488,3.836,1.19,1.19,0,0,1-.606,1.514c-.1,0-.3.1-.4.1Zm0,0" transform="translate(0.091 0.067)"/>
  </g>
</svg>
