<svg xmlns="http://www.w3.org/2000/svg" xmlns:xlink="http://www.w3.org/1999/xlink" viewBox="0 0 62 68.579">
  <defs>
    <style>
      .cls-1 {
        fill: #fecc37;
        stroke: #fff;
        stroke-width: 2px;
      }

      .cls-2 {
        fill: #fff;
      }

      .cls-3 {
        stroke: none;
      }

      .cls-4 {
        fill: none;
      }

      .cls-5 {
        filter: url(#Path_534);
      }

      .cls-6 {
        filter: url(#Rectangle_788);
      }
    </style>
    <filter id="Rectangle_788" x="0" y="0" width="62" height="68.579" filterUnits="userSpaceOnUse">
      <feOffset input="SourceAlpha"/>
      <feGaussianBlur stdDeviation="2" result="blur"/>
      <feFlood flood-opacity="0.502"/>
      <feComposite operator="in" in2="blur"/>
      <feComposite in="SourceGraphic"/>
    </filter>
    <filter id="Path_534" x="12.026" y="13.342" width="37.67" height="25.366" filterUnits="userSpaceOnUse">
      <feOffset input="SourceAlpha"/>
      <feGaussianBlur stdDeviation="1.5" result="blur-2"/>
      <feFlood flood-opacity="0.502"/>
      <feComposite operator="in" in2="blur-2"/>
      <feComposite in="SourceGraphic"/>
    </filter>
  </defs>
  <g id="Group_1012" data-name="Group 1012" transform="translate(-4403 -6432)">
    <g class="cls-6" transform="matrix(1, 0, 0, 1, 4403, 6432)">
      <g id="Rectangle_788-2" data-name="Rectangle 788" class="cls-1" transform="translate(6 6)">
        <rect class="cls-3" width="50" height="56.579"/>
        <rect class="cls-4" x="1" y="1" width="48" height="54.579"/>
      </g>
    </g>
    <g id="Group_1011" data-name="Group 1011" transform="translate(4419.526 6466.208) rotate(-90)">
      <g id="Group_433" data-name="Group 433" transform="translate(0)">
        <g class="cls-5" transform="matrix(0, 1, -1, 0, 34.21, -16.53)">
          <path id="Path_534-2" data-name="Path 534" class="cls-2" d="M15.741,15.741,3.4,28.084A1.989,1.989,0,0,1,.586,25.272L11.523,14.335.586,3.4A1.989,1.989,0,0,1,3.4.586L15.741,12.929a2.1,2.1,0,0,1,.625,1.406,2.1,2.1,0,0,1-.625,1.406Zm0,0" transform="translate(16.53 34.21) rotate(-90)"/>
        </g>
      </g>
    </g>
  </g>
</svg>
