<svg xmlns="http://www.w3.org/2000/svg" viewBox="0 0 36.762 105.206">
  <defs>
    <style>
      .cls-1 {
        fill: #119d46;
      }

      .cls-2 {
        fill: #4daf50;
      }
    </style>
  </defs>
  <g id="Group_645" data-name="Group 645" transform="translate(0.023 -0.019)">
    <path id="Path_765" data-name="Path 765" class="cls-1" d="M18.946,18.9c-.371,3.891,2.409,6.485,0,9.82C16.538,31.684,13.388,32.61,8.2,32.24a.681.681,0,0,1,.556.185c10.005,1.3,19.269-6.114,20.752-16.49A18.77,18.77,0,0,0,28.4,6.3C24.134,10.191,19.5,14.823,18.946,18.9Z" transform="translate(7.013 5.357)"/>
    <path id="Path_766" data-name="Path 766" class="cls-1" d="M2.058,23.144C1.688,15.918,15.213,11.1,19.289,2.763c1.112,1.112.556,2.965,1.853,4.447.556.741,5-3.15,7.6-4.076A17.976,17.976,0,0,0,20.957.169C10.952-1.128,1.688,6.1.205,16.474A18.934,18.934,0,0,0,2.8,29.259,11.219,11.219,0,0,1,2.058,23.144Z" transform="translate(0)"/>
    <path id="Path_767" data-name="Path 767" class="cls-1" d="M16.477,8.229a18.825,18.825,0,0,0,3.891-1.112A17.091,17.091,0,0,0,16.292,2.3C16.292,4.338,15.736,7.858,16.477,8.229Z" transform="translate(13.744 1.945)"/>
    <path id="Path_768" data-name="Path 768" class="cls-2" d="M8.047,20.994A13.372,13.372,0,0,1,3.6,18.4,9.132,9.132,0,0,0,8.047,20.994Z" transform="translate(3.09 15.676)"/>
    <path id="Path_769" data-name="Path 769" class="cls-2" d="M9.414,21.606A14.7,14.7,0,0,1,3.3,17.9c.185.371.556.741.741,1.112a17.52,17.52,0,0,0,4.447,2.594c.185,0,.556.185.741.185C9.229,21.606,9.229,21.606,9.414,21.606Z" transform="translate(2.834 15.25)"/>
    <path id="Path_770" data-name="Path 770" class="cls-1" d="M9.785,30.731c2.965.185,5.558-.185,7.041-1.853,1.668-3.15-2.594-4.817-2.409-6.855.371-3.15,4.632-7.041,7.041-9.449-1.668.185-2.965,1.3-3.706,1.3-.185-.556,1.853-3.52,2.223-4.447-1.3.185-3.52,2.779-4.076,2.409-.556-.741,1.853-4.261,1.112-4.632C14.788,11.832,2.744,19.058,2.93,22.949a5.387,5.387,0,0,0,.926,4.076A12.992,12.992,0,0,0,9.785,30.731Z" transform="translate(2.463 6.124)"/>
    <path id="Path_771" data-name="Path 771" class="cls-1" d="M6.485,58.318A40.643,40.643,0,0,0,16.675,53.13c3.15-1.668,3.52,5-.371,7.411a63.866,63.866,0,0,1-9.264,5.373c.556,6.3.741,12.784.926,19.455H28.9V81.479a30.1,30.1,0,0,1-3.52-.741c-4.632-1.112-9.264-2.965-8.523-4.632.556-1.668,7.041-1.3,11.858-.371h.371v-.741a27.364,27.364,0,0,1-3.891-.185c-4.817-.371-9.635-1.668-9.264-3.706s6.855-2.409,11.673-2.223H29.46v-.926c-.926,0-1.668.185-2.594.185-4.261.185-9.82-.371-10.005-2.594s3.891-3.15,8.152-3.706a40.3,40.3,0,0,1,4.817-.185v-.741h0c-4.261.741-10.191,1.112-10.561-.926-.556-1.853,3.52-3.706,7.782-4.632a27.448,27.448,0,0,1,3.52-.556,193.926,193.926,0,0,1,6.114-31.5H0A218.936,218.936,0,0,1,6.485,58.318Z" transform="translate(0.02 19.855)"/>
  </g>
</svg>
