<svg xmlns="http://www.w3.org/2000/svg" viewBox="0 0 91.724 82.581">
  <defs>
    <style>
      .cls-1 {
        fill: #119d46;
        fill-rule: evenodd;
      }
    </style>
  </defs>
  <path id="Path_900" data-name="Path 900" class="cls-1" d="M45,10.535a5.227,5.227,0,0,0,5.1-5.1,5.1,5.1,0,1,0-10.2,0,5,5,0,0,0,5.1,5.1ZM81.019,59.472a9.089,9.089,0,0,0-7.137-4.418H71.843a11.071,11.071,0,0,1-6.457-2.719L50.094,35.683V16.312c3.059-2.719,6.8-6.117,7.476-7.476a31.448,31.448,0,0,0,1.359-6.457C58.929,1.02,58.25,0,56.89,0h-.34a1.959,1.959,0,0,0-2.039,2.039c-.34,1.7-.68,4.078-1.02,5.1a20.678,20.678,0,0,1-4.758,4.418H41.258A41.241,41.241,0,0,0,36.5,7.137a32.594,32.594,0,0,1-1.02-5.1A2.193,2.193,0,0,0,33.441,0H33.1c-1.02,0-1.7,1.359-1.7,2.379a31.448,31.448,0,0,0,1.359,6.457c.68,1.359,4.078,4.078,6.8,6.8l.34,19.711L24.266,65.929a2.847,2.847,0,0,1-2.719,2.039,2.043,2.043,0,0,1-1.359-.34L14.41,64.57a6.3,6.3,0,0,0-2.379-.68c-2.039,0-4.078,1.02-4.758,2.719L.477,79.183c-.34.68-.68,1.7,0,2.379a2.055,2.055,0,0,0,2.039,1.02h87a2.055,2.055,0,0,0,2.039-1.02,2.9,2.9,0,0,0,0-2.379ZM41.937,36.7h6.457L64.027,53.695a14.033,14.033,0,0,0,3.738,2.379c-.34.34-.34.68-.68,1.02L62.328,70.007c-.34,1.02-1.359,1.359-2.039.34l-.68-.68a29.4,29.4,0,0,1-2.379-3.4l-.68-1.359q-1.02-1.529-2.039-1.02c-.68.68-1.359,0-1.7-1.02l-1.359-4.078c-.34-1.359-1.359-1.359-2.039-.34l-2.379,2.719c-.68,1.02-1.359.68-1.359-.34V56.413c0-1.359-.68-1.359-1.7-.68l-2.039,2.039c-1.02.68-1.359.68-1.359-.68l1.359-7.816c.34-1.359-.34-1.359-1.359-.68l-.34.34c-1.02.68-1.359.34-1.359-.68l1.7-9.176Zm3.738-4.758h-.34c-.34,0-.68,0-.68.34v-5.1h1.359v4.758ZM73.882,57.093c2.039,0,4.418,1.359,5.1,3.059l4.758,9.176-1.359-.34a1.5,1.5,0,0,0-2.039,1.359c0,1.02-.68,1.02-1.359.34l-.34-.34a4,4,0,0,0-2.039-1.7c-.34,0-1.02-.68-1.359-1.7s-1.02-1.359-1.7-1.02-1.02-.34-1.02-1.359v-.68c0-1.359-.68-2.039-1.7-2.039a1.5,1.5,0,0,1-1.359-2.039,4.123,4.123,0,0,0,.34-1.7v-.68a3.7,3.7,0,0,0,1.7.34h2.379Z" transform="translate(-0.084)"/>
</svg>
