<svg xmlns="http://www.w3.org/2000/svg" viewBox="0 0 71.072 102.13">
  <defs>
    <style>
      .cls-1 {
        fill: #fff;
        fill-rule: evenodd;
      }
    </style>
  </defs>
  <g id="Group_737" data-name="Group 737" transform="translate(-0.057)">
    <path id="Path_901" data-name="Path 901" class="cls-1" d="M63.849,67.143a10.348,10.348,0,0,0,4.045,7.483,11.351,11.351,0,0,1-7.887,3.438,6.972,6.972,0,0,0,1.618-3.236,21.891,21.891,0,0,0,1.213-7.685ZM46.456,79.277v19.01a3.84,3.84,0,0,1-3.843,3.843,4.02,4.02,0,0,1-4.045-3.843V81.1l-9.3-6.876a7.939,7.939,0,0,1-2.831.607h0l-3.64,11.123a4.241,4.241,0,0,1-1.618,2.225L6.009,98.692a3.031,3.031,0,0,1-2.022.4A4.222,4.222,0,0,1,.751,97.478a3.9,3.9,0,0,1,1.011-5.46L15.716,82.31l3.64-11.73a6.58,6.58,0,0,1-.809-4.449l3.034-27.706L14.1,42.47,18.345,54a3.879,3.879,0,0,1-2.225,5.056,3.442,3.442,0,0,1-1.416.2,3.886,3.886,0,0,1-3.64-2.629L5.6,41.863a3.776,3.776,0,0,1,1.82-4.854s12.134-7.685,15.774-9.1A17.329,17.329,0,0,1,38.973,30.74c1.82,1.618,9.1,10.921,9.1,10.921H61.826A3.84,3.84,0,0,1,65.669,45.5a4.02,4.02,0,0,1-3.842,4.045H46.456a4.116,4.116,0,0,1-3.034-1.213l-5.865-6.472L34.524,67.547v.4l10.719,7.887a7.049,7.049,0,0,1,1.213,3.438ZM31.9,22.651A11.325,11.325,0,1,0,20.57,11.325,11.575,11.575,0,0,0,31.9,22.651ZM60.208,55.413A11.165,11.165,0,0,1,68.1,58.649a10.348,10.348,0,0,0-4.045,7.483H63.04a25.286,25.286,0,0,0-1.011-7.281,10.439,10.439,0,0,0-1.82-3.438Zm-1.416,0h0q1.213.607,2.427,3.64a23.835,23.835,0,0,1,1.011,7.078c-.809,0-1.213-.2-1.82-.2-.4-3.64-3.438-6.674-7.887-7.887a10.46,10.46,0,0,1,6.269-2.629Zm-7.281,3.64c4.449,1.011,7.281,3.842,7.685,7.078A80.577,80.577,0,0,1,48.479,65.12a12.34,12.34,0,0,1,3.034-6.067Zm16.988.4a10.076,10.076,0,0,1,2.427,6.269,57.656,57.656,0,0,1-6.269.4A10.853,10.853,0,0,1,68.5,59.458ZM48.479,65.929A57.384,57.384,0,0,0,59.4,66.94c-.2,3.236-3.236,6.269-7.685,7.281a11.807,11.807,0,0,1-3.034-7.685c-.2,0-.2-.4-.2-.607Zm22.651.809A11.45,11.45,0,0,1,68.5,74.019a9.038,9.038,0,0,1-3.64-6.876,61.246,61.246,0,0,0,6.269-.4Zm-10.921.4h1.82a26.309,26.309,0,0,1-1.213,7.483,6,6,0,0,1-2.427,3.438,10.532,10.532,0,0,1-6.269-2.831c4.651-1.213,7.887-4.449,8.089-8.089Z" transform="translate(0)"/>
  </g>
</svg>
