<svg xmlns="http://www.w3.org/2000/svg" viewBox="0 0 92.247 63.009">
  <defs>
    <style>
      .cls-1 {
        fill: #119d46;
      }
    </style>
  </defs>
  <path id="Path_902" data-name="Path 902" class="cls-1" d="M54.917,0H8.092A8.081,8.081,0,0,0,0,8.092V84.155a8.081,8.081,0,0,0,8.092,8.092H54.917a8.081,8.081,0,0,0,8.092-8.092V8.092A8.081,8.081,0,0,0,54.917,0Zm0,86.853H47.472V80.109a2.671,2.671,0,0,0-2.7-2.7H20.607a2.671,2.671,0,0,0-2.7,2.7v6.743H8.092a2.671,2.671,0,0,1-2.7-2.7V48.821H19.1a12.688,12.688,0,0,0,24.815,0h13.7V84.155A2.671,2.671,0,0,1,54.917,86.853Zm-12.893,0H23.3V82.807H42.078v4.046ZM8.092,5.395h9.764v6.743a2.671,2.671,0,0,0,2.7,2.7H44.721a2.671,2.671,0,0,0,2.7-2.7V5.395h7.445a2.671,2.671,0,0,1,2.7,2.7V43.426H43.966a12.688,12.688,0,0,0-24.815,0H5.395V8.092A2.741,2.741,0,0,1,8.092,5.395Zm15.213,0H42.078V9.44H23.3Zm15,43.426a7.331,7.331,0,0,1-13.594,0ZM24.707,43.426a7.331,7.331,0,0,1,13.594,0Z" transform="translate(92.247) rotate(90)"/>
</svg>
