<svg id="Group_683" data-name="Group 683" xmlns="http://www.w3.org/2000/svg" viewBox="0 0 28 28">
  <defs>
    <style>
      .cls-1, .cls-2 {
        fill: #fff;
      }

      .cls-1 {
        fill-rule: evenodd;
      }
    </style>
  </defs>
  <path id="Path_877" data-name="Path 877" class="cls-1" d="M14,0A14,14,0,1,1,0,14,14.041,14.041,0,0,1,14,0Zm0,1.9A12.1,12.1,0,1,1,1.9,14,12.078,12.078,0,0,1,14,1.9Z"/>
  <g id="Group_682" data-name="Group 682">
    <g id="Group_681" data-name="Group 681">
      <path id="Path_878" data-name="Path 878" class="cls-2" d="M14,7.8c-4,0-7.6,2.2-10.3,5.7a.908.908,0,0,0,0,1C6.4,18,10,20.2,14,20.2s7.6-2.2,10.3-5.7a.908.908,0,0,0,0-1C21.6,10,18,7.8,14,7.8Zm.3,10.6a4.461,4.461,0,0,1-4.7-4.7,4.33,4.33,0,0,1,4.1-4.1,4.41,4.41,0,1,1,.6,8.8Zm-.1-2a2.355,2.355,0,1,1,2.2-2.2,2.547,2.547,0,0,1-2.2,2.2Zm0,0"/>
    </g>
  </g>
</svg>
