<svg id="Group_680" data-name="Group 680" xmlns="http://www.w3.org/2000/svg" viewBox="0 0 28 28">
  <defs>
    <style>
      .cls-1, .cls-2 {
        fill: #fff;
      }

      .cls-1 {
        fill-rule: evenodd;
      }
    </style>
  </defs>
  <path id="Path_873" data-name="Path 873" class="cls-1" d="M14,0A14,14,0,1,1,0,14,14.041,14.041,0,0,1,14,0Zm0,1.9A12.1,12.1,0,1,1,1.9,14,12.078,12.078,0,0,1,14,1.9Z"/>
  <g id="Group_677" data-name="Group 677">
    <path id="Path_874" data-name="Path 874" class="cls-2" d="M10.4,16.3H6.5l-.9,3.1H3.8L7.6,7H9.3l3.8,12.4H11.3ZM6.9,14.9H10L8.5,9.5H8.4Z"/>
  </g>
  <g id="Group_678" data-name="Group 678">
    <path id="Path_875" data-name="Path 875" class="cls-2" d="M20.8,17.1H17.9l-.7,2.3H16l2.8-9H20l2.7,9H21.4Zm-2.6-1h2.3l-1.1-3.9h0Z"/>
  </g>
  <g id="Group_679" data-name="Group 679">
    <path id="Path_876" data-name="Path 876" class="cls-2" d="M13.2,8.1h1V9h-1v1.4h-.9V9h-1V8.1h1V6.8h.9Z"/>
  </g>
</svg>
