<svg id="Group_998" data-name="Group 998" xmlns="http://www.w3.org/2000/svg" viewBox="0 0 48.005 37.689">
  <defs>
    <style>
      .cls-1 {
        fill: #fff;
      }
    </style>
  </defs>
  <path id="Path_1181" data-name="Path 1181" class="cls-1" d="M28.318,25.605a16.771,16.771,0,0,0,6.864-5.014,10.762,10.762,0,0,0,0-13.81,16.721,16.721,0,0,0-6.864-4.932A23.939,23.939,0,0,0,18.865,0,23.8,23.8,0,0,0,9.412,1.849,16.771,16.771,0,0,0,2.548,6.864a10.5,10.5,0,0,0-.658,12.864,15.334,15.334,0,0,0,5.22,4.726c-.164.411-.37.822-.534,1.192a8.748,8.748,0,0,1-.658,1.027c-.247.329-.452.575-.616.781a5.035,5.035,0,0,1-.7.781c-.329.329-.534.575-.616.658l-.123.123-.123.123-.123.123a.255.255,0,0,0-.082.164l-.041.164a.247.247,0,0,0-.041.164v.164c0,.082,0,.123.041.164a.832.832,0,0,0,.329.575.968.968,0,0,0,.534.205h.082c.9-.123,1.644-.288,2.3-.411a22.351,22.351,0,0,0,7.439-3.411,26.557,26.557,0,0,0,4.726.411,24.478,24.478,0,0,0,9.412-1.849Zm0,0"/>
  <path id="Path_1182" data-name="Path 1182" class="cls-1" d="M69.792,40.433a10.379,10.379,0,0,0,1.891-6,10.517,10.517,0,0,0-2.014-6.165A16.336,16.336,0,0,0,64.2,23.5,13.76,13.76,0,0,1,63.01,34.391a18.053,18.053,0,0,1-5.137,5.672A23.591,23.591,0,0,1,50.8,43.516a27.515,27.515,0,0,1-8.261,1.192q-.8,0-2.343-.123a22.617,22.617,0,0,0,12.659,3.535,26.89,26.89,0,0,0,4.726-.411,22.351,22.351,0,0,0,7.439,3.411,21.632,21.632,0,0,0,2.3.411.769.769,0,0,0,.575-.206.9.9,0,0,0,.329-.575c0-.123,0-.164.041-.164s.041-.082,0-.164a.648.648,0,0,1-.041-.164l-.082-.123c0-.041-.041-.082-.082-.164s-.082-.123-.123-.123l-.123-.123q-.062-.123-.123-.123a6.406,6.406,0,0,0-.616-.658c-.329-.329-.534-.616-.7-.781a6.14,6.14,0,0,0-.617-.781,5.445,5.445,0,0,1-.658-1.027,8,8,0,0,1-.534-1.192,15.759,15.759,0,0,0,5.22-4.726Zm0,0" transform="translate(-23.678 -13.842)"/>
</svg>
