<svg id="Group_990" data-name="Group 990" xmlns="http://www.w3.org/2000/svg" viewBox="0 0 41.269 45">
  <defs>
    <style>
      .cls-1 {
        fill: #44525a;
      }
    </style>
  </defs>
  <path id="Path_1154" data-name="Path 1154" class="cls-1" d="M32.139,22.522A10.826,10.826,0,0,0,40.1,19.241a10.825,10.825,0,0,0,3.282-7.957A10.826,10.826,0,0,0,40.1,3.327,10.7,10.7,0,0,0,32.139,0a10.825,10.825,0,0,0-7.957,3.282A10.825,10.825,0,0,0,20.9,11.239,10.826,10.826,0,0,0,24.182,19.2a10.867,10.867,0,0,0,7.957,3.327Zm0,0" transform="translate(-11.504)"/>
  <path id="Path_1155" data-name="Path 1155" class="cls-1" d="M41.134,59.6c-.09-.989-.225-2.068-.4-3.192a30.216,30.216,0,0,0-.764-3.192,14.719,14.719,0,0,0-1.259-2.877,11.033,11.033,0,0,0-1.8-2.383,7.5,7.5,0,0,0-2.517-1.573,8.534,8.534,0,0,0-3.282-.584,3.706,3.706,0,0,0-1.214.629c-.629.4-1.394.9-2.2,1.394a12.91,12.91,0,0,1-3.147,1.394,13.168,13.168,0,0,1-3.911.629,13.168,13.168,0,0,1-3.911-.629,13.918,13.918,0,0,1-3.147-1.394c-.809-.495-1.528-.989-2.2-1.394A3.706,3.706,0,0,0,10.16,45.8a8.692,8.692,0,0,0-3.282.584,7.5,7.5,0,0,0-2.517,1.573,9.756,9.756,0,0,0-1.8,2.383A14.719,14.719,0,0,0,1.3,53.218a20.761,20.761,0,0,0-.764,3.192,30.991,30.991,0,0,0-.4,3.192C.045,60.59,0,61.579,0,62.613a7.382,7.382,0,0,0,2.158,5.574,7.947,7.947,0,0,0,5.664,2.023H33.447a7.8,7.8,0,0,0,5.664-2.023,7.247,7.247,0,0,0,2.158-5.574c0-1.034-.045-2.023-.135-3.012Zm0,0" transform="translate(0 -25.211)"/>
</svg>
