<svg id="Group_993" data-name="Group 993" xmlns="http://www.w3.org/2000/svg" viewBox="0 0 45 45">
  <defs>
    <style>
      .cls-1 {
        fill: #fff;
      }
    </style>
  </defs>
  <path id="Path_1161" data-name="Path 1161" class="cls-1" d="M48.8,58.2" transform="translate(-19.363 -23.093)"/>
  <path id="Path_1162" data-name="Path 1162" class="cls-1" d="M0,38.421v11.34H11.34L37.761,23.34,26.421,12Zm9.772,7.54H7.54v-3.8H3.8V39.929l4.584-4.584,5.972,5.972ZM27.024,18.937,13.271,32.69c-.422.422-.9.483-1.267.06-.422-.422-.422-.845.06-1.327L25.818,17.67c.422-.422.9-.483,1.267-.06a.9.9,0,0,1-.06,1.327Zm0,0" transform="translate(0 -4.761)"/>
  <path id="Path_1163" data-name="Path 1163" class="cls-1" d="M62.9,7.058,56.928,1.086a3.787,3.787,0,0,0-5.308,0L48,4.705l11.34,11.34,3.619-3.619a3.643,3.643,0,0,0,1.086-2.654A3.514,3.514,0,0,0,62.9,7.058Zm0,0" transform="translate(-19.046)"/>
</svg>
