<svg id="Group_992" data-name="Group 992" xmlns="http://www.w3.org/2000/svg" viewBox="0 0 34.963 42.007">
  <defs>
    <style>
      .cls-1 {
        fill: #00983a;
      }
    </style>
  </defs>
  <path id="Path_1158" data-name="Path 1158" class="cls-1" d="M34.453,12.464a7.178,7.178,0,0,0-1.3-2.1L24.634,1.846a5.981,5.981,0,0,0-2.1-1.3A6.092,6.092,0,0,0,20.143,0H2.644A2.582,2.582,0,0,0,0,2.644V39.405a2.534,2.534,0,0,0,.755,1.846,2.534,2.534,0,0,0,1.846.755H32.355a2.579,2.579,0,0,0,2.6-2.6V14.9a5.394,5.394,0,0,0-.5-2.434ZM21.025,3.735a3.119,3.119,0,0,1,1.133.588l8.561,8.561a2.793,2.793,0,0,1,.588,1.133H21.025ZM31.516,38.524H3.483V3.483H17.5V14.856a2.579,2.579,0,0,0,2.6,2.6H31.474V38.524Zm0,0" transform="translate(0 0)"/>
  <path id="Path_1159" data-name="Path 1159" class="cls-1" d="M36.843,66.7H17.581a.861.861,0,0,0-.881.881v1.763a.861.861,0,0,0,.881.881H36.843a.861.861,0,0,0,.881-.881V67.581a.861.861,0,0,0-.881-.881Zm0,0" transform="translate(-9.692 -38.709)"/>
  <path id="Path_1160" data-name="Path 1160" class="cls-1" d="M16.952,50.252a.854.854,0,0,0-.252.629v1.763a.861.861,0,0,0,.881.881H36.843a.861.861,0,0,0,.881-.881V50.881A.861.861,0,0,0,36.843,50H17.581a1.421,1.421,0,0,0-.629.252Zm0,0" transform="translate(-9.692 -29.017)"/>
</svg>
