<svg id="Group_999" data-name="Group 999" xmlns="http://www.w3.org/2000/svg" viewBox="0 0 44.388 44.299">
  <defs>
    <style>
      .cls-1 {
        fill: #fff;
      }
    </style>
  </defs>
  <path id="Path_1183" data-name="Path 1183" class="cls-1" d="M25.624,26.426a1.39,1.39,0,0,0-2.034,0L20.1,29.875a1.5,1.5,0,0,0,0,2.034l11.716,11.76a1.491,1.491,0,0,0,.884.4c.044,0,.088.044.177.044a1.437,1.437,0,0,0,1.061-.442L54.98,22.624a1.475,1.475,0,0,0,.4-1.017,1.4,1.4,0,0,0-.4-1.017l-3.448-3.448a1.343,1.343,0,0,0-1.017-.442,1.28,1.28,0,0,0-1.017.442L32.875,33.677Zm0,0" transform="translate(-10.99 -9.317)"/>
  <path id="Path_1184" data-name="Path 1184" class="cls-1" d="M42.663,18.347,24.846,36.209A3.736,3.736,0,0,1,21.973,37.4h-.8L21,37.27a4.445,4.445,0,0,1-1.945-1.061L7.383,24.449A3.941,3.941,0,0,1,6.19,21.575,3.871,3.871,0,0,1,7.383,18.7l3.448-3.493a3.941,3.941,0,0,1,2.874-1.194,4.014,4.014,0,0,1,2.874,1.194l5.438,5.438L33.468,9.152l-7.648-7.6A5.048,5.048,0,0,0,22.15,0,4.976,4.976,0,0,0,18.48,1.547L1.547,18.436A5.074,5.074,0,0,0,0,22.15a4.976,4.976,0,0,0,1.547,3.669L18.48,42.752A5.074,5.074,0,0,0,22.194,44.3a4.906,4.906,0,0,0,3.669-1.547L42.8,25.819a5.048,5.048,0,0,0,1.547-3.669A4.976,4.976,0,0,0,42.8,18.48Zm0,0"/>
</svg>
