<svg xmlns="http://www.w3.org/2000/svg" viewBox="0 0 19.134 54.512">
  <defs>
    <style>
      .cls-1 {
        fill: #fff;
      }
    </style>
  </defs>
  <g id="Group_997" data-name="Group 997" transform="translate(0 0.026)">
    <path id="Path_1174" data-name="Path 1174" class="cls-1" d="M29.366,24.786c-.2,2.009,1.219,3.326,0,5.072-1.284,1.548-2.865,2.009-5.566,1.778.1,0,.165.033.263.033a9.738,9.738,0,0,0,10.7-8.5,10.045,10.045,0,0,0-.56-4.973C32.1,20.275,29.662,22.646,29.366,24.786Z" transform="translate(-15.962 -12.224)"/>
    <path id="Path_1175" data-name="Path 1175" class="cls-1" d="M1.125,11.97C.928,8.249,7.876,5.779,10.05,1.4c.56.626.3,1.581.922,2.338.3.4,2.569-1.581,3.919-2.141A9.191,9.191,0,0,0,10.906.049,9.738,9.738,0,0,0,.2,8.545a9.961,9.961,0,0,0,1.35,6.586A5.186,5.186,0,0,1,1.125,11.97Z" transform="translate(-0.071 0)"/>
    <path id="Path_1176" data-name="Path 1176" class="cls-1" d="M46.962,9.629A8.959,8.959,0,0,0,48.97,9a9.077,9.077,0,0,0-2.108-2.5C46.83,7.587,46.566,9.464,46.962,9.629Z" transform="translate(-31.352 -4.377)"/>
    <path id="Path_1177" data-name="Path 1177" class="cls-1" d="M12.905,54.917A8.9,8.9,0,0,1,10.6,53.6,4.525,4.525,0,0,0,12.905,54.917Z" transform="translate(-7.109 -35.966)"/>
    <path id="Path_1178" data-name="Path 1178" class="cls-1" d="M12.594,53.943A8.779,8.779,0,0,1,9.4,52a3.325,3.325,0,0,0,.428.527,8.39,8.39,0,0,0,2.305,1.317c.132.033.263.066.362.1Z" transform="translate(-6.304 -34.892)"/>
    <path id="Path_1179" data-name="Path 1179" class="cls-1" d="M11.565,33.085a4.329,4.329,0,0,0,3.623-.955c.889-1.647-1.383-2.47-1.251-3.557.231-1.614,2.371-3.656,3.623-4.841-.856.066-1.548.626-1.976.626-.1-.329.955-1.844,1.186-2.305-.659.1-1.844,1.449-2.108,1.251-.329-.428.988-2.206.527-2.4-1.153,2.338-7.344,6.158-7.278,8.167a2.891,2.891,0,0,0,.428,2.075A9.2,9.2,0,0,0,11.565,33.085Z" transform="translate(-5.274 -14.034)"/>
    <path id="Path_1180" data-name="Path 1180" class="cls-1" d="M3.326,86.449a21.653,21.653,0,0,0,5.3-2.668c1.614-.856,1.811,2.569-.165,3.853A40.779,40.779,0,0,1,3.721,90.4c.263,3.26.4,6.619.428,10.11H14.984c0-.659.033-1.317.033-1.976-.56-.1-1.186-.231-1.811-.362-2.437-.56-4.742-1.515-4.446-2.371s3.688-.659,6.158-.165c.066,0,.132.033.2.033a2.026,2.026,0,0,1,.033-.428c-.626,0-1.35-.033-2.042-.1-2.5-.231-4.973-.889-4.808-1.91.132-1.021,3.557-1.218,6.06-1.12.329,0,.659.033.955.033,0-.165.033-.329.033-.494-.428.033-.889.033-1.317.066-2.239.1-5.072-.165-5.17-1.284-.132-1.12,2.009-1.68,4.248-1.91.757-.066,1.647-.132,2.5-.132,0-.1.033-.231.033-.329H15.61c-2.206.362-5.236.56-5.5-.461s1.844-1.943,4.018-2.437c.626-.132,1.251-.263,1.844-.329A103.643,103.643,0,0,1,19.134,68.6H0A105.455,105.455,0,0,1,3.326,86.449Z" transform="translate(0 -46.026)"/>
  </g>
</svg>
