<svg xmlns="http://www.w3.org/2000/svg" viewBox="0 0 32.55 45">
  <defs>
    <style>
      .cls-1 {
        fill: #fff;
      }
    </style>
  </defs>
  <g id="Group_989" data-name="Group 989" transform="translate(0.026)">
    <g id="Group_988" data-name="Group 988" transform="translate(-0.026 0)">
      <path id="Path_1152" data-name="Path 1152" class="cls-1" d="M28.62,62.6H20.2A1.48,1.48,0,0,0,18.8,64V72.42a1.48,1.48,0,0,0,1.4,1.4H28.62a1.48,1.48,0,0,0,1.4-1.4V64a1.351,1.351,0,0,0-.432-.971,1.172,1.172,0,0,0-.971-.432Zm0,0" transform="translate(-8.642 -28.823)"/>
      <path id="Path_1153" data-name="Path 1153" class="cls-1" d="M31.067,8.471a14.379,14.379,0,0,0-3.723-4.478,17.794,17.794,0,0,0-5.126-2.914A16.215,16.215,0,0,0,16.553,0C9.377,0,3.981,3.129.2,9.335a1.6,1.6,0,0,0-.216.971,1.26,1.26,0,0,0,.54.863L6.3,15.54a1.983,1.983,0,0,0,.863.27,1.26,1.26,0,0,0,1.079-.54,24.291,24.291,0,0,1,3.777-4.047A6.482,6.482,0,0,1,15.8,10.2a6.5,6.5,0,0,1,3.777,1.133,3.189,3.189,0,0,1,1.619,2.59,4.05,4.05,0,0,1-.863,2.7,7.829,7.829,0,0,1-2.968,1.942,14.51,14.51,0,0,0-5.018,3.831,8.244,8.244,0,0,0-2.266,5.5V29.46a2.386,2.386,0,0,0,.378,1.295c.27.432.54.647.917.647H19.79a1.144,1.144,0,0,0,.971-.54,1.985,1.985,0,0,0,.432-1.133,4.941,4.941,0,0,1,.971-2.374,6.954,6.954,0,0,1,2.428-2.266c.917-.54,1.619-.917,2.158-1.241a18.929,18.929,0,0,0,2.05-1.511,11.5,11.5,0,0,0,1.942-2.1,12.745,12.745,0,0,0,1.241-2.7,10.722,10.722,0,0,0,.54-3.561,12.888,12.888,0,0,0-1.457-5.5Zm0,0" transform="translate(0.026 0)"/>
    </g>
  </g>
</svg>
