<svg id="Group_996" data-name="Group 996" xmlns="http://www.w3.org/2000/svg" viewBox="0 0 45.359 33.472">
  <defs>
    <style>
      .cls-1 {
        fill: #fff;
      }
    </style>
  </defs>
  <path id="Path_1173" data-name="Path 1173" class="cls-1" d="M44.994,17.465a3.754,3.754,0,0,0-1.6-1.677,4.759,4.759,0,0,0-2.37-.583H36.462V11.413a5.1,5.1,0,0,0-1.568-3.756,5.1,5.1,0,0,0-3.756-1.568H18.267V5.323A5.1,5.1,0,0,0,16.7,1.568,5.1,5.1,0,0,0,12.944,0H5.323A5.1,5.1,0,0,0,1.568,1.568,5.1,5.1,0,0,0,0,5.323V28.149A5.1,5.1,0,0,0,1.568,31.9a5.1,5.1,0,0,0,3.756,1.568H31.175a7.7,7.7,0,0,0,3.318-.839,7.807,7.807,0,0,0,2.771-2.078l7-8.642a4.5,4.5,0,0,0,1.094-2.844,3.559,3.559,0,0,0-.365-1.6ZM3.026,5.323A2.241,2.241,0,0,1,5.287,3.063h7.621a2.241,2.241,0,0,1,2.261,2.261V6.855a2.241,2.241,0,0,0,2.261,2.261H31.1a2.241,2.241,0,0,1,2.261,2.261v3.792H15.2a7.577,7.577,0,0,0-3.318.839,8.518,8.518,0,0,0-2.771,2.078L3.026,25.6ZM41.895,20.018l-7,8.605A5.21,5.21,0,0,1,33.217,29.9a4.553,4.553,0,0,1-2.042.51H5.323c-.839,0-1.276-.292-1.276-.839a1.66,1.66,0,0,1,.438-.948l7-8.642a4.842,4.842,0,0,1,1.714-1.24,4.954,4.954,0,0,1,2.042-.51H41.093c.839,0,1.276.292,1.276.839a1.921,1.921,0,0,1-.474.948Zm0,0"/>
</svg>
