<svg id="Group_685" data-name="Group 685" xmlns="http://www.w3.org/2000/svg" viewBox="0 0 28 28">
  <defs>
    <style>
      .cls-1, .cls-2 {
        fill: #fff;
      }

      .cls-1 {
        fill-rule: evenodd;
      }
    </style>
  </defs>
  <path id="Path_879" data-name="Path 879" class="cls-1" d="M14,0A14,14,0,1,1,0,14,14.041,14.041,0,0,1,14,0Zm0,1.9A12.1,12.1,0,1,1,1.9,14,12.078,12.078,0,0,1,14,1.9Z"/>
  <g id="Group_684" data-name="Group 684">
    <path id="Path_880" data-name="Path 880" class="cls-2" d="M19.6,11.3a.634.634,0,0,0-.6-.5h-.7a.56.56,0,0,0-.6.5l-1.4,5a.667.667,0,0,0,1.3.3l.3-.9h1.8l.3.9a.738.738,0,0,0,.6.5h.2a.657.657,0,0,0,.5-.8Zm-1.5,3.1.5-1.7.5,1.7Z"/>
    <path id="Path_881" data-name="Path 881" class="cls-2" d="M21.1,7.2H17.2a1.613,1.613,0,0,0-.3-.9,1.382,1.382,0,0,0-1.1-.6H7.4A2.951,2.951,0,0,0,4.6,8.6v7.9a2.773,2.773,0,0,0,2.2,2.7v3a.675.675,0,0,0,.4.6c.1,0,.2.1.3.1.2,0,.3-.1.5-.2l3.4-3.4H12a1.613,1.613,0,0,0,.3.9,1.382,1.382,0,0,0,1.1.6H21A2.8,2.8,0,0,0,23.8,18V10A2.711,2.711,0,0,0,21.1,7.2ZM12.4,18H11a.764.764,0,0,0-.5.2L8.1,20.6v-2a.684.684,0,0,0-.7-.7,1.538,1.538,0,0,1-1.5-1.5V8.6A1.538,1.538,0,0,1,7.4,7.1h8.4l-2.3,7.3h-.1a3.766,3.766,0,0,1-1.5-.9A5.574,5.574,0,0,0,13,10.7h.8a.7.7,0,1,0,0-1.4H11.6a.7.7,0,0,0-1.4,0H8.1a.7.7,0,1,0,0,1.4h3.6a5.964,5.964,0,0,1-.7,1.8,2.186,2.186,0,0,0-.3-.5.671.671,0,1,0-1.2.6c.2.4.4.7.6,1.1a5.428,5.428,0,0,1-1.5.9.751.751,0,0,0-.4.9.622.622,0,0,0,.6.4H9a5.162,5.162,0,0,0,1.9-1.2,6.15,6.15,0,0,0,1.9,1.2H13Zm10.1-.1A1.538,1.538,0,0,1,21,19.4H13.4L16.8,8.6h4.3a1.538,1.538,0,0,1,1.5,1.5v7.8Z"/>
  </g>
</svg>
